<?xml version="1.0" encoding="utf-8"?>
<!-- Generator: Adobe Illustrator 18.0.0, SVG Export Plug-In . SVG Version: 6.00 Build 0)  -->
<!DOCTYPE svg PUBLIC "-//W3C//DTD SVG 1.1//EN" "http://www.w3.org/Graphics/SVG/1.1/DTD/svg11.dtd">
<svg version="1.1" id="Layer_2" xmlns="http://www.w3.org/2000/svg" xmlns:xlink="http://www.w3.org/1999/xlink" x="0px" y="0px"
	 viewBox="0 0 528.7 90.6" enable-background="new 0 0 528.7 90.6" xml:space="preserve">
<g>
	<path fill="none" stroke="#B2182A" stroke-width="4.5877" stroke-miterlimit="10" d="M54.3,14.2h-25c-7,0-12.6,5.6-12.6,12.6v37.5
		c0,7,5.6,12.6,12.6,12.6h14"/>
	<path fill="none" stroke="#B2182A" stroke-width="4.5877" stroke-miterlimit="10" d="M54.3,6.3H29.5C18.1,6.3,8.8,15.6,8.8,27v37.2
		c0,11.4,9.2,20.6,20.6,20.6h24.8"/>
</g>
<g>
	<path fill="none" stroke="#B2182A" stroke-width="4.5877" stroke-miterlimit="10" d="M283.5,14.2h-25c-7,0-12.6,5.6-12.6,12.6v37.5
		c0,7,5.6,12.6,12.6,12.6h14"/>
	<path fill="none" stroke="#B2182A" stroke-width="4.5877" stroke-miterlimit="10" d="M283.5,6.3h-24.8C247.2,6.3,238,15.6,238,27
		v37.2c0,11.4,9.2,20.6,20.6,20.6h24.8"/>
</g>
<g>
	<path fill="none" stroke="#B2182A" stroke-width="4.5877" stroke-miterlimit="10" d="M68.9,87.6l0.2-64.8c0-8.3,6.7-15,15-15h17.7
		c5.7,0,10.3,4.7,10.3,10.4L112,33.6c0,5.7-4.6,10.2-10.3,10.2H85.4l21.3,31.4"/>
	<path fill="none" stroke="#B2182A" stroke-width="5" stroke-miterlimit="10" d="M101.6,14.6H84.8c-4.3,0-7.7,3.5-7.7,7.7v14.4h24.4
		c1.9,0,3.5-1.6,3.5-3.5V18.1C105.1,16.2,103.5,14.6,101.6,14.6z"/>
	<polyline fill="none" stroke="#B2182A" stroke-width="5" stroke-linecap="square" stroke-miterlimit="1" points="76.9,75.3 
		76.9,44.3 104.5,87.2 	"/>
</g>
<g>
	<path fill="none" stroke="#B2182A" stroke-width="4" stroke-miterlimit="10" d="M170.1,17.6h-25.5c-7.1,0-12.9,6.2-12.9,13.8v40.9
		c0,7.6,5.8,13.8,12.9,13.8h17.4"/>
	<path fill="none" stroke="#B2182A" stroke-width="4" stroke-miterlimit="10" d="M170.4,79.3h-25.9c-3.4,0-6.1-2.7-6.1-6.1V50.3h19"
		/>
	<path fill="none" stroke="#B2182A" stroke-width="4" stroke-miterlimit="10" d="M170.4,43.3h-32V30c0-3.1,2.5-5.7,5.7-5.7h20.3"/>
</g>
<g>
	<path fill="none" stroke="#B2182A" stroke-width="4.5885" stroke-miterlimit="10" d="M343.5,6.3h-29.3c-8.2,0-14.8,7.1-14.8,15.8
		V69c0,8.7,6.6,15.8,14.8,15.8h20"/>
	<path fill="none" stroke="#B2182A" stroke-width="4.5885" stroke-miterlimit="10" d="M343.7,77.2h-29.7c-3.9,0-7-3.1-7-7V43.9h21.8
		"/>
	<path fill="none" stroke="#B2182A" stroke-width="4.5885" stroke-miterlimit="10" d="M343.7,35.9H307V20.6c0-3.6,2.9-6.5,6.5-6.5
		h23.3"/>
</g>
<g>
	<path fill="none" stroke="#B2182A" stroke-width="4" stroke-miterlimit="10" d="M220.6,18.1l-26-0.1c-7,0-12.7,5.7-12.7,12.7v6.5
		c0,7,5.7,12.7,12.7,12.7l10-0.1c4,0,7.3,3.2,7.3,7.2v15.5c0,4-3.2,7.3-7.3,7.3h-24.3"/>
	<path fill="none" stroke="#B2182A" stroke-width="4" stroke-miterlimit="10" d="M208.4,24.8h-14c-3.6,0-6.5,2.9-6.5,6.5v6
		c0,3.6,2.9,6.5,6.5,6.5h11c7.5,0,13.5,6,13.5,13.5v15c0,7.5-6,13.5-13.5,13.5h-14"/>
</g>
<g>
	<path fill="none" stroke="#B2182A" stroke-width="4" stroke-miterlimit="10" d="M359.9,88.3V23.2c0-5.8,8-7.4,10.2-2l22.3,55.4
		c0.1,0.2,0.5,0.2,0.5-0.1V27.3"/>
	<path fill="none" stroke="#B2182A" stroke-width="4" stroke-miterlimit="10" d="M365.9,74.3V29.6c0-0.4,0.6-0.5,0.7-0.1l21.5,53
		c2.3,5.7,10.8,4.1,10.8-2.1v-65"/>
</g>
<g>
	<path fill="none" stroke="#B2182A" stroke-width="4" stroke-miterlimit="10" d="M442.3,17.9H420v67.4h22.3
		c9.4,0,17.1-7.6,17.1-17.1V35C459.4,25.6,451.7,17.9,442.3,17.9z"/>
	<path fill="none" stroke="#B2182A" stroke-width="4" stroke-miterlimit="10" d="M425.9,37.1v42h14.9c6.5,0,11.9-5.3,11.9-11.9V35.5
		c0-6.5-5.3-11.9-11.9-11.9h-6.6"/>
	<path fill="none" stroke="#B2182A" stroke-width="0.7469" stroke-miterlimit="10" d="M425.9,24.5"/>
</g>
<g>
	<path fill="none" stroke="#B2182A" stroke-width="4" stroke-miterlimit="10" d="M518.3,57.4v10.9c0,9.4-7.6,17.1-17.1,17.1h-5.4
		c-9.4,0-17.1-7.6-17.1-17.1V35.1c0-9.4,7.6-17.1,17.1-17.1h5.4c9.4,0,17.1,7.6,17.1,17.1v4.9"/>
	<path fill="none" stroke="#B2182A" stroke-width="4" stroke-miterlimit="10" d="M485.1,55.2V35.2c0-5.9,4.8-10.8,10.8-10.8h5.3
		c5.9,0,10.8,4.8,10.8,10.8v32.9c0,5.9-4.8,10.8-10.8,10.8h-5.3c-5.9,0-10.8-4.8-10.8-10.8v-8.1"/>
</g>
</svg>
